<?xml version="1.0" encoding="UTF-8"?>
<svg xmlns="http://www.w3.org/2000/svg" xmlns:xlink="http://www.w3.org/1999/xlink" width="40px" height="40px" viewBox="0 0 40 40" version="1.1">
    <g id="surface1">
        <path style=" stroke:none;fill-rule:evenodd;fill:rgb(100%,100%,100%);fill-opacity:1;" d="M 0 20 L 0 40 L 40 40 L 40 0 L 0 0 L 0 20 M 15.589844 9.707031 C 16.195312 10.296875 16.207031 10.308594 16.425781 10.570312 C 16.53125 10.695312 16.761719 10.933594 16.933594 11.097656 C 17.105469 11.261719 17.492188 11.648438 17.792969 11.957031 C 18.09375 12.265625 19.199219 13.382812 20.253906 14.441406 L 22.164062 16.367188 L 21.601562 16.941406 C 20.945312 17.609375 20.09375 18.414062 20.023438 18.429688 C 20 18.433594 18.929688 17.394531 17.652344 16.121094 L 15.328125 13.796875 L 15.136719 13.78125 C 15.027344 13.773438 14.332031 13.773438 13.589844 13.78125 L 12.234375 13.796875 L 12.574219 14.121094 C 12.757812 14.296875 13.042969 14.554688 13.203125 14.695312 C 13.363281 14.832031 13.613281 15.058594 13.753906 15.199219 C 13.894531 15.335938 14.167969 15.597656 14.359375 15.777344 C 15.15625 16.535156 18.554688 19.945312 18.554688 19.988281 C 18.554688 20.011719 18.417969 20.15625 18.253906 20.304688 C 17.886719 20.628906 17.628906 20.886719 17.011719 21.539062 C 16.320312 22.269531 16.460938 22.269531 15.765625 21.558594 L 15.175781 20.957031 L 15.164062 22.195312 C 15.15625 23.390625 15.152344 23.433594 15.078125 23.457031 C 15.035156 23.46875 14.890625 23.605469 14.757812 23.753906 C 14.621094 23.90625 14.40625 24.117188 14.277344 24.222656 C 13.84375 24.585938 13.429688 24.964844 12.390625 25.953125 L 12.179688 26.152344 L 15.171875 26.191406 L 15.179688 28.046875 C 15.183594 29.066406 15.175781 30.082031 15.164062 30.300781 L 15.144531 30.703125 L 12.5 30.703125 C 10.152344 30.703125 9.847656 30.695312 9.828125 30.644531 C 9.800781 30.570312 9.800781 9.332031 9.832031 9.285156 C 9.84375 9.265625 11.042969 9.257812 12.5 9.265625 L 15.152344 9.277344 L 15.589844 9.707031 M 30.136719 9.296875 C 30.164062 9.339844 30.167969 30.664062 30.144531 30.691406 C 30.132812 30.699219 28.949219 30.707031 27.515625 30.707031 L 24.90625 30.703125 L 23.042969 28.820312 C 22.015625 27.78125 21.148438 26.90625 21.113281 26.875 C 20.414062 26.234375 17.863281 23.605469 17.890625 23.554688 C 17.945312 23.453125 19.960938 21.503906 20.027344 21.492188 C 20.078125 21.480469 21.640625 23.015625 24.40625 25.789062 L 24.785156 26.171875 L 27.867188 26.171875 L 27.730469 26.03125 C 27.65625 25.953125 27.511719 25.820312 27.402344 25.734375 C 27.292969 25.648438 26.976562 25.355469 26.699219 25.085938 C 26.417969 24.8125 26.066406 24.476562 25.917969 24.339844 C 25.480469 23.933594 23.667969 22.179688 23.539062 22.035156 C 23.359375 21.832031 22.78125 21.261719 22.09375 20.597656 C 21.5625 20.085938 21.484375 19.996094 21.519531 19.933594 C 21.542969 19.894531 22.019531 19.40625 22.578125 18.847656 L 23.59375 17.832031 L 24.824219 19.0625 L 24.8125 18.425781 C 24.804688 18.078125 24.808594 17.519531 24.824219 17.1875 L 24.851562 16.582031 L 25.324219 16.113281 C 25.585938 15.855469 26.097656 15.363281 26.464844 15.019531 C 26.828125 14.675781 27.21875 14.304688 27.328125 14.199219 C 27.4375 14.09375 27.59375 13.957031 27.675781 13.898438 L 27.824219 13.789062 L 27.261719 13.78125 C 26.953125 13.773438 26.292969 13.777344 25.796875 13.785156 C 25.136719 13.796875 24.886719 13.789062 24.867188 13.753906 C 24.851562 13.730469 24.832031 12.722656 24.824219 11.519531 L 24.8125 9.332031 L 24.894531 9.296875 C 25.003906 9.25 30.109375 9.253906 30.136719 9.296875 "/>
    </g>
</svg>
