<?xml version="1.0" encoding="UTF-8"?>
<svg class="icon" viewBox="0 0 1024 1024" version="1.1" xmlns="http://www.w3.org/2000/svg" width="200" height="200">
    <path d="M99.12 428.002h828.014a43.35 43.35 0 0 0 43.35-43.35 43.249 43.249 0 0 0-16.451-33.957 43.466 43.466 0 0 0-9.22-8.757L635.505 124.87a43.35 43.35 0 1 0-49.809 70.964l207.271 145.46H99.12a43.35 43.35 0 0 0 0 86.708z m828.014 173.075H99.12a43.35 43.35 0 0 0-43.35 43.35 43.206 43.206 0 0 0 16.451 33.95 43.284 43.284 0 0 0 9.22 8.757L390.75 904.21a43.314 43.314 0 0 0 60.387-10.584 43.35 43.35 0 0 0-10.578-60.387l-207.27-145.46h693.845a43.35 43.35 0 0 0 0-86.7z" />
</svg>